<?xml version="1.0" encoding="UTF-8" standalone="no"?>
<!-- Created with Inkscape (http://www.inkscape.org/) -->

<svg
   xmlns:dc="http://purl.org/dc/elements/1.1/"
   xmlns:cc="http://creativecommons.org/ns#"
   xmlns:rdf="http://www.w3.org/1999/02/22-rdf-syntax-ns#"
   xmlns:svg="http://www.w3.org/2000/svg"
   xmlns="http://www.w3.org/2000/svg"
   xmlns:sodipodi="http://sodipodi.sourceforge.net/DTD/sodipodi-0.dtd"
   xmlns:inkscape="http://www.inkscape.org/namespaces/inkscape"
   width="64"
   height="64"
   viewBox="0 0 63.999999 64"
   id="svg5177"
   version="1.1"
   inkscape:version="0.91 r13725"
   sodipodi:docname="C3.svg">
  <defs
     id="defs5179" />
  <sodipodi:namedview
     id="base"
     pagecolor="#ffffff"
     bordercolor="#666666"
     borderopacity="1.0"
     inkscape:pageopacity="0.0"
     inkscape:pageshadow="2"
     inkscape:zoom="11.2"
     inkscape:cx="43.752509"
     inkscape:cy="23.698191"
     inkscape:document-units="px"
     inkscape:current-layer="layer1"
     showgrid="false"
     fit-margin-top="0"
     fit-margin-left="0"
     fit-margin-right="0"
     fit-margin-bottom="0"
     units="px"
     inkscape:window-width="2495"
     inkscape:window-height="1056"
     inkscape:window-x="65"
     inkscape:window-y="24"
     inkscape:window-maximized="1" />
  <metadata
     id="metadata5182">
    <rdf:RDF>
      <cc:Work
         rdf:about="">
        <dc:format>image/svg+xml</dc:format>
        <dc:type
           rdf:resource="http://purl.org/dc/dcmitype/StillImage" />
        <dc:title></dc:title>
      </cc:Work>
    </rdf:RDF>
  </metadata>
  <g
     inkscape:label="Layer 1"
     inkscape:groupmode="layer"
     id="layer1"
     transform="translate(285.31785,-282.74255)">
    <path
       id="path5816"
       style="font-style:normal;font-variant:normal;font-weight:normal;font-stretch:normal;font-size:86.6492157px;line-height:69.99999881%;font-family:'Padauk Book';-inkscape-font-specification:'Padauk Book, ';text-align:center;letter-spacing:0px;word-spacing:0px;text-anchor:middle;fill:#000000;fill-opacity:1;stroke:none;stroke-width:1px;stroke-linecap:butt;stroke-linejoin:miter;stroke-opacity:1"
       d="m -251.67388,283.24255 c -6.01155,0 -11.12978,0.88003 -15.35411,2.64051 -4.14311,1.76047 -7.55432,4.11748 -10.23516,7.07256 -2.59958,2.8922 -4.50794,6.25653 -5.7265,10.09184 -1.21855,3.8353 -1.8282,7.82731 -1.8282,11.97699 0,4.08681 0.56712,8.01734 1.70444,11.78977 1.13732,3.77244 3.00598,7.10387 5.60557,9.99607 2.68084,2.8922 6.09205,5.18776 10.23514,6.88535 4.22434,1.6976 9.38509,2.54691 15.47788,2.54691 4.30558,0 8.24421,-0.47184 11.81865,-1.41496 3.65568,-0.9431 6.78332,-2.23134 9.38293,-3.86607 2.59959,-1.69759 4.67239,-3.67932 6.21589,-5.94278 1.54352,-2.32633 2.39702,-4.84135 2.5595,-7.54493 l -13.16029,0 c -0.2437,3.70956 -1.8685,6.50768 -4.87427,8.3939 -3.00577,1.82335 -7.02946,2.73412 -12.06617,2.73412 -6.66145,0 -11.65775,-1.82154 -14.98847,-5.46822 -3.33073,-3.70957 -4.99523,-9.74693 -4.99523,-18.10916 0,-8.04786 1.6248,-14.08305 4.87429,-18.10697 3.24948,-4.02394 8.36771,-6.03639 15.35411,-6.03639 5.76784,0 9.95035,0.91294 12.54994,2.73629 2.59959,1.76047 3.98333,4.43132 4.1458,8.01514 l 12.54995,0 c -0.16249,-2.70358 -0.85435,-5.1857 -2.07292,-7.44916 -1.13732,-2.26346 -2.92373,-4.18155 -5.36085,-5.7534 -2.35589,-1.63472 -5.36161,-2.89223 -9.01728,-3.77246 -3.57444,-0.94312 -7.83916,-1.41495 -12.79464,-1.41495 z"
       inkscape:connector-curvature="0" />
  </g>
</svg>
